<?xml version="1.0" encoding="UTF-8" standalone="no"?>
<svg
   viewBox="0 0 500 500"
   version="1.1"
   id="svg1"
   sodipodi:docname="dvop.svg"
   inkscape:version="1.4.2 (2aeb623e1d, 2025-05-12)"
   width="500"
   height="500"
   xmlns:inkscape="http://www.inkscape.org/namespaces/inkscape"
   xmlns:sodipodi="http://sodipodi.sourceforge.net/DTD/sodipodi-0.dtd"
   xmlns="http://www.w3.org/2000/svg"
   xmlns:svg="http://www.w3.org/2000/svg">
  <defs
     id="defs1">
    <inkscape:path-effect
       effect="mirror_symmetry"
       start_point="250,400"
       end_point="250,99.999998"
       center_point="250,250"
       id="path-effect6"
       is_visible="true"
       lpeversion="1.2"
       lpesatellites=""
       mode="free"
       discard_orig_path="false"
       fuse_paths="false"
       oposite_fuse="false"
       split_items="false"
       split_open="false"
       link_styles="false" />
    <inkscape:path-effect
       effect="mirror_symmetry"
       start_point="250,399.99619"
       end_point="250,100.33367"
       center_point="250,250.16493"
       id="path-effect5"
       is_visible="true"
       lpeversion="1.2"
       lpesatellites=""
       mode="free"
       discard_orig_path="true"
       fuse_paths="true"
       oposite_fuse="true"
       split_items="true"
       split_open="false"
       link_styles="false" />
  </defs>
  <sodipodi:namedview
     id="namedview1"
     pagecolor="#505050"
     bordercolor="#eeeeee"
     borderopacity="1"
     inkscape:showpageshadow="0"
     inkscape:pageopacity="0"
     inkscape:pagecheckerboard="0"
     inkscape:deskcolor="#505050"
     showguides="true"
     inkscape:zoom="2.9104515"
     inkscape:cx="164.06389"
     inkscape:cy="169.56132"
     inkscape:window-width="2560"
     inkscape:window-height="1303"
     inkscape:window-x="0"
     inkscape:window-y="0"
     inkscape:window-maximized="1"
     inkscape:current-layer="g10"
     showgrid="false">
    <sodipodi:guide
       position="163,257"
       orientation="1,0"
       id="guide1"
       inkscape:locked="false" />
    <sodipodi:guide
       position="249.99609,552.74609"
       orientation="1,0"
       id="guide2"
       inkscape:locked="false" />
    <sodipodi:guide
       position="191.80271,365.27534"
       orientation="0,-1"
       id="guide3"
       inkscape:locked="false" />
    <sodipodi:guide
       position="197.5,385.5"
       orientation="0,-1"
       id="guide4"
       inkscape:locked="false" />
    <inkscape:grid
       id="grid1"
       units="px"
       originx="0"
       originy="0"
       spacingx="1"
       spacingy="1"
       empcolor="#0099e5"
       empopacity="0.30196078"
       color="#0099e5"
       opacity="0.14901961"
       empspacing="5"
       enabled="true"
       visible="false" />
  </sodipodi:namedview>
  <!-- Blue rounded square background -->
  <g
     id="g2"
     transform="matrix(0.51111111,0,0,0.52817445,255.62222,150.45908)">
    <rect
       x="-461"
       y="-247"
       rx="24"
       ry="24"
       width="900"
       height="870.92438"
       fill="#492d69"
       id="rect3" />
    <rect
       x="-461"
       y="-247"
       rx="24"
       ry="23.995031"
       width="900"
       height="79.51918"
       fill="#3d265d"
       id="rect4"
       style="stroke-width:1.15123" />
    <g
       transform="translate(-411,-147)"
       id="g10">
      <rect
         x="-1.086953"
         y="13.598848"
         rx="0"
         ry="12.622092"
         width="273.91306"
         height="28.399708"
         fill="#5d3c80"
         id="rect5"
         style="fill:#c6b4ff;fill-opacity:1;stroke-width:0.821745" />
      <rect
         x="-1.086953"
         y="79.86483"
         rx="0"
         ry="12.622092"
         width="195.65218"
         height="28.399708"
         fill="#5d3c80"
         id="rect6"
         style="fill:#c6b4ff;fill-opacity:1;stroke-width:0.77048" />
      <rect
         x="-1.086953"
         y="146.13081"
         rx="0"
         ry="12.622092"
         width="40.896473"
         height="28.399708"
         fill="#5d3c80"
         id="rect6-6"
         style="fill:#c6b4ff;fill-opacity:1;stroke-width:0.352259" />
      <rect
         x="-1.086953"
         y="212.3968"
         rx="0"
         ry="12.622092"
         width="447.43314"
         height="28.399708"
         fill="#5d3c80"
         id="rect8"
         style="fill:#c6b4ff;fill-opacity:1;stroke-width:1.29646" />
      <rect
         x="-1.086953"
         y="278.66278"
         rx="0"
         ry="12.622092"
         width="342.15118"
         height="28.399708"
         fill="#5d3c80"
         id="rect9"
         style="fill:#c6b4ff;fill-opacity:1;stroke-width:0.890995" />
      <rect
         x="-1.086953"
         y="344.92877"
         rx="0"
         ry="12.622092"
         width="646.34247"
         height="28.399708"
         fill="#5d3c80"
         id="rect10"
         style="fill:#c6b4ff;fill-opacity:1;stroke-width:1.8437" />
    </g>
    <rect
       x="-412.08694"
       y="264.19476"
       width="15.533879"
       height="28.399708"
       rx="4.6601639"
       ry="3.8726873"
       fill="#c6b4ff"
       id="rect11"
       style="stroke-width:1.41608" />
    <rect
       x="397.07825"
       y="-133.40115"
       rx="22.441359"
       ry="10.341076"
       width="29.921812"
       height="723.87531"
       fill="#3d265d"
       id="rect12"
       style="stroke-width:2.53897" />
    <rect
       x="397.07825"
       y="-95.534874"
       rx="22.441359"
       ry="6"
       width="29.921812"
       height="80"
       fill="#5d3c80"
       id="rect13"
       style="stroke-width:1.93397" />
  </g>
  <g
     id="g4-9"
     transform="matrix(1.1734463,0,0,1.1976576,-71.911902,-395.47295)"
     inkscape:highlight-color="#ff5555"
     style="fill:#10e04d;fill-opacity:1">
    <path
       id="rect4-7"
       style="fill:#10e04d;fill-opacity:1;stroke-width:4.41967"
       d="m 295.48091,360.33554 c -25.56878,-21.09639 -45.85375,-4.43039 -51.40659,8.24763 -6.93039,15.8234 5.05153,41.5831 25.79198,34.81594 30.1284,-9.83028 4.4515,33.86388 4.4515,33.86388 11.10526,6.18598 43.04912,-58.86974 21.16311,-76.92745 z"
       sodipodi:nodetypes="ssscs" />
    <circle
       style="fill:#10e04d;fill-opacity:1;stroke-width:4.92375"
       id="path3-7-3"
       cx="274.33032"
       cy="378.47012"
       r="33.235435" />
  </g>
  <ellipse
     style="fill:#10e04d;fill-opacity:1;stroke-width:56.814"
     id="path3"
     cx="247.75911"
     cy="802.34229"
     rx="220"
     ry="668.5" />
  <!-- White abstract symbol -->
  <!-- Text "Dvop" -->
  <g
     id="g17"
     transform="translate(-3.3782154e-7,116.55123)"
     style="display:inline">
    <path
       id="path1"
       style="opacity:1;fill:#fff246;fill-opacity:1;stroke-width:2.15081"
       d="M 121.08148,92.914753 C 76.998221,108.78042 53.88283,139.92507 50.001516,147.93009 c -0.0034,0.007 -1.9e-5,0.0131 0,0.0201 3.16e-4,0.1137 -4.93e-4,0.22505 0,0.33888 2.3e-5,0.006 -2.2e-5,0.0108 0,0.016 23.459275,79.99534 34.84023,108.99005 49.127595,141.36414 12.255629,27.77033 23.476709,44.76028 61.290539,38.75571 15.76951,-2.50408 72.48326,-30.06805 89.49958,-47.86682 85.25082,23.19952 74.49185,92.07257 74.49185,92.07257 L 371.95997,329.8971 C 499.6569,215.1314 433.75488,126.05976 427.18291,96.663242 395.89948,117.49488 346.11033,153.93674 328.20768,228.79311 c -18.20139,-40.3421 -9.54959,-91.131 -8.13851,-131.971393 -12.83477,3.391573 -22.88811,5.598343 -32.15543,9.681273 -12.36637,5.44827 -23.33312,14.23729 -37.64149,33.64013 C 203.79829,75.034669 156.5747,80.14067 121.08148,92.914753 Z"
       sodipodi:nodetypes="sssscssccccccscs" />
    <g
       id="g4"
       transform="matrix(1.0096729,0,0,1.0096729,-120.35068,-192.34231)"
       inkscape:highlight-color="#ff5555"
       style="fill:#8a55c5;fill-opacity:1">
      <circle
         style="fill:#8a55c5;fill-opacity:1;stroke-width:4.92375"
         id="path3-7"
         cx="274.33032"
         cy="378.47012"
         r="33.235435" />
    </g>
  </g>
  <path
     id="path3-9"
     style="fill:#8a55c5;fill-opacity:1;stroke-width:31.2486"
     d="m 316.83073,274.81391 c -13.21068,4.85011 -21.99168,17.42795 -21.99176,31.50081 2.6e-4,17.56369 13.54391,32.15582 31.05887,33.46329 -7.74699,-20.17225 -9.43956,-42.6218 -9.06711,-64.9641 z m 36.86204,9.45287 c -9.8562,15.58947 -18.32926,33.91885 -24.10217,55.58426 18.05682,-0.64328 32.36256,-15.46804 32.3622,-33.53632 -1.2e-4,-8.10572 -2.9342,-15.93745 -8.26003,-22.04794 z"
     sodipodi:nodetypes="ccccccsc" />
</svg>
